# xmcd
#
# Track frame offsets:
#	150
#	13761
#	35056
#	51320
#	70185
#	81407
#	97980
#	114172
#	130770
#	144119
#	162830
#	177489
#	198730
#	212852
#	230544
#	244548
#	268142
#	292391
#	306780
#	320906
#
# Disc length: 4408 seconds
#
# Revision: 1
# Processed by: cddbd v1.5.2PL0 Copyright (c) Steve Scherf et al.
# Submitted via: audiograbber 1.83.01
#
DISCID=31113614
DTITLE=John Denver - Gold Collection
DYEAR=1900
DGENRE=Country
TTITLE0=Leaving on a jet plane
TTITLE1=Annie's Song
TTITLE2=Perhaps Love (Denver and Domingo)
TTITLE3=The eagle and the hawk
TTITLE4=Sunshine on my shoulders
TTITLE5=Poems, Prayers and Promises
TTITLE6=Follow Me
TTITLE7=Starwood in Aspen
TTITLE8=Rhymes and Reasons
TTITLE9=Goodbye Again
TTITLE10=I'm Sorry
TTITLE11=Callypso
TTITLE12=Rocky Mountain High
TTITLE13=Back Home Again
TTITLE14=Thank God i'm a country boy
TTITLE15=Fly Away
TTITLE16=Sweet Surrender
TTITLE17=Shanghai Breezes
TTITLE18=Some Days are diamonds
TTITLE19=Take me home country roads
EXTD=
EXTT0=
EXTT1=
EXTT2=
EXTT3=
EXTT4=
EXTT5=
EXTT6=
EXTT7=
EXTT8=
EXTT9=
EXTT10=
EXTT11=
EXTT12=
EXTT13=
EXTT14=
EXTT15=
EXTT16=
EXTT17=
EXTT18=
EXTT19=
PLAYORDER=
